<svg xmlns="http://www.w3.org/2000/svg" width="256" height="256" fill="none" viewBox="0 0 256 256">
<!-- SVG created with Arrow, by QuiverAI (https://quiver.ai) -->
  <path d="m127.7 198 97.97-51.53c1.57-0.87 1.34-2.58 1.35-4.54l-0.16-79.74c0-1.37-0.58-2.37-1.73-3.05l-16.79-10.24-7.84-15.83c-0.42-0.85-1.09-1.43-1.98-1.77l-26.72-10.18c-0.89-0.37-1.84-0.38-2.74-0.01l-7.06 2.78-19.14-15.4c-0.83-0.67-1.93-0.9-3.01-0.72l-36.15 5.51c-0.87 0.14-1.7 0.44-2.39 0.99l-24.35 18.15-21.02 1.52c-1.05 0.08-2.01 0.55-2.73 1.33l-24.28 24.42c-0.69 0.74-1.03 1.62-1.03 2.63l0.03 81.08c0 1.34 0.61 2.42 1.82 3.07l96.65 51.53c0.4 0.24 0.89 0.24 1.3 0z" fill="#0A2D4D"/>
  <path d="m129.9 189.7 33.61-17.34 15.06-26.22c0.41-0.7 0.96-1.29 1.67-1.72l8.86-5.6c0.7-0.45 1.29-1.07 1.71-1.83l3.05-8.02-19.11 4.22c-11.85 17.68-24.55 29.7-44.85 39.2v17.31z" fill="#4B4C4C"/>
  <path d="m220.9 141.7-46.89 25.97 8.49-18.02 11.68-7.89c0.7-0.48 1.29-1.14 1.71-1.93l13.86-25.16 11.15-4.57v31.6z" fill="#474444"/>
  <path d="m178.9 125.3 19.44-5.59 6.41-9.18c0.59-0.85 1.38-1.51 2.33-1.93l13.76-5.53v-16.75l-17.96 9.92-7.77-0.81-8.17 7.21c-1.59 7.83-4.17 15.38-8.04 22.66z" fill="#475B6A"/>
  <path d="m188.9 76.41 29.99-14.8-13.89-7.98-7.96 4.5 5.68-5.67-6.45-15.52-30.48 16.12-31.43-12.42 36.54-12.93 24.23 7.96 5.67 14.61 7.96 4.78 11.01 6.55-30.64 16.2-0.23-1.4z" fill="#475B6A"/>
  <path d="m134.4 40.64 31.43 12.42 30.48-17.04-25.37-8.31-25.64 5.67-10.9 7.26z" fill="#778C96"/>
  <path d="m189.1 84.41 31.79-17.32v10.72l-18.79 17.32-6.94 0.29-7.66 7.49 1.6-18.5z" fill="#778C96"/>
  <path d="m34.77 60.91 23.14-21.3 44.42-2.55 13.02-8.84-13.02 3.4h-14.61l17.32-13.02 34.83-4.82 16.46 13.01-8.84 3.21-2.56 3.38 11.01-4.24-16.07-15.36-34.83 4.82-18.21 13.86h15.5l12.16-4.24-12.16 7.96-44.42 2.56-23.14 22.17z" fill="#205CAA"/>
  <path d="m33.92 66.86 31.25 15.83 0.64 14.03-31.89-16.71v-13.15z" fill="#778C96"/>
  <path d="m33.92 84.26 32.73 15.6 1.56 3.48-34.29-17.32v-1.76z" fill="#596B77"/>
  <path d="m33.92 103.3 16.87 7.88 11.86 16.5c0.63 0.9 1.56 1.54 2.66 1.85l14.05 3.19c11.62 17.17 22.85 29.52 45.43 39.65v17.31l-90.87-49.01v-37.37z" fill="url(#paint0_linear_2396_11201)"/>
  <path d="m51.63 126 5.68 13.86 10.18 5.67 9.26 9.75-6.52-15.42-10.18-5.25-8.42-8.61z" fill="#0A2D4D"/>
  <path d="m33.92 96.37 19.79 10.18c0.93 0.48 1.7 1.21 2.26 2.14l10.18 14.53 8.84 2.07c-4.01-8.11-6.53-16.11-8.18-24.54l-32.89-17.32v12.94z" fill="#778C96"/>
  <path d="m127.3 36.72c-0.76-0.51-1.36-0.41-2.16 0.15-16.94 12.04-32.39 18.4-58.59 20.17-1.15 0.08-1.38 0.74-1.46 1.77-1.29 17.15-0.25 32.36 3.83 47.07 8.02 29.18 27.25 51.4 57.3 64.2 0.63 0.28 1.12 0.29 1.79-0.05 29.54-14.87 45.15-33.94 54.66-62.02 4.99-14.75 6.33-27.12 5.83-40.98l-0.35-8.73c-0.06-1.02-0.71-1.47-1.76-1.55-22.58-1.77-41.11-7.77-59.09-20.03z" fill="#0A2D4D"/>
  <path d="m126.7 42.89c-16.46 11.17-32.93 16.84-55.6 19.47-2 28.5 2.7 47.55 14.01 65.74 10.02 16.71 22.12 25.89 41.7 35.13 24.78-12.89 38.08-29.35 48.1-55.02 5.48-14.48 6.56-25.49 6.25-40.2l-0.09-5.22c-21.73-2.48-37.08-8.15-54.37-19.9z" fill="url(#paint1_linear_2396_11201)"/>
  <path d="m127.6 48.94c-14.67 8.97-27.69 15.49-50.26 18.54-1.27 21.73 2.14 38.61 11.44 55.07 9.46 15.93 19.16 25.16 37.96 34.62 23-11.86 34.05-26.39 43.51-48.56 4.82-12.32 5.99-21.16 5.87-33.62v-5.79c-20.08-2.93-32.23-8.86-48.52-20.26z" fill="#0A2D4D"/>
  <path d="m127.3 56.9c-13.28 7.71-24.73 12.3-43.53 15.7l0.44 17.52 15.04-4.66 18.21 0.85 11.01-7.96 13.87-4.29 6.11-6.11c-7.8-2.97-13-5.83-21.15-11.05z" fill="#778C96"/>
  <path d="m127.3 56.9v19.75l9.75-3.03 10.59-5.22c-7.96-3.38-12.08-5.78-20.34-11.5z" fill="#475B6A"/>
  <path d="m155.1 69.2-9.75 7.01-14.98 5.1-8.42 7.96 6.11 3.38 14.98 4.36 5.22-3.48 23.57-7.51 0.45-13.42c-6.52-1.3-10.51-2.04-17.18-3.4z" fill="#475B6A"/>
  <path d="m85.03 96.23 15.42-6.11 15.93 1.27 12.06 7.96 10.18 2.85-13.02 12.52-18.38-1.27-13.41 7.77c-4.73-8.04-6.63-14.15-8.78-24.99z" fill="url(#paint2_linear_2396_11201)"/>
  <path d="m127.3 131.1 13.86-6.52 7.52-10.18 18.38-6.11c-9.35 20.58-19.22 34.63-39.76 44.81v-22z" fill="#475B6A"/>
  <path d="m127.3 131.1 13.86-6.52 7.52-11.52 17.94-6.03c2.44-7.06 2.82-9.06 3.52-14.97l-20.62 6.52-22.22 21.77-19.61-1.33-11.37 6.95c8.52 12.05 15.37 19 30.98 27.13v-22z" fill="#778C96"/>
  <path d="m8.5 215.4h16.46c8.16 0 11.5 3.35 11.5 8.5 0 3.23-1.29 5.47-3.85 6.8 3.45 1.07 5.18 3.6 5.18 7.72 0 6.18-4.48 8.98-12.38 8.98h-16.91v-32zm15.61 13.62c3.38 0 4.45-1.65 4.45-3.89 0-2.13-1.45-3.46-4.83-3.46h-8.12v7.35h8.5zm1 12.68c4 0 5.2-1.65 5.2-4.2 0-2.45-1.4-3.75-5.2-3.75h-9.5v7.95h9.5z" fill="#0A253A"/>
  <path d="m43.61 215.4h23.56v6.27h-16.45v7.13h14.57v5.5h-14.57v7.4h17.09v5.7h-24.2v-32z" fill="#0A253A"/>
  <path d="m73.61 215.4h15.7c10.3 0 16.8 6.65 16.8 16s-6.5 16-16.8 16h-15.7v-32zm15.2 26c6.8 0 9.4-4.5 9.4-10s-2.6-10-9.4-10h-7.3v20h7.3z" fill="#0A253A"/>
  <path d="m111.1 215.4h14.8c8.2 0 12.9 4.7 12.9 11.7 0 4.95-2.35 8.6-6.4 10.6l7.6 10.2h-9.05l-4.75-9h-7.6v9h-7.5v-32.5zm14.3 18c4.6 0 6.3-3.3 6.3-6.3 0-3.25-2.05-5.7-6.3-5.7h-6.8v12h6.8z" fill="#0A253A"/>
  <path d="m143.3 232.1c0-10.05 6.8-17.2 17.3-17.2s17.3 7.15 17.3 16.5-7.25 16.5-17.3 16.5-17.3-6.7-17.3-15.8zm26.7-0.7c0-6.5-4.5-10-9.4-10-5.35 0-10 3.5-10 10.7 0 6.5 4.95 10 9.85 10 5.35 0 9.55-4.4 9.55-10.7z" fill="#0A253A"/>
  <path d="m182.1 232.1c0-10.05 7.2-17.2 16.2-17.2h0.9c6.4 0 10.8 2.15 12.75 6.15l-5.05 4.95c-1.65-3.1-4.4-4.6-8.1-4.6-6 0-9.8 4.7-9.8 10.7 0 5.6 4 10 9.6 10 4.1 0 6.85-2 8.4-4.5l5.1 5.1c-3.2 3.9-7.4 5.2-13.2 5.2-9.6 0-16.8-6.7-16.8-15.8z" fill="#0A253A"/>
  <path d="m216.9 215.4h7.5v16l14.5-16h8.8l-13 14.7 13.8 17.8h-8.9l-10.2-12.7-5 4.7v8h-7.5v-32.5z" fill="#0A253A"/>
  <defs>
    <linearGradient id="paint0_linear_2396_11201" x1="33.92" x2="124.8" y1="146.5" y2="146.5" gradientUnits="userSpaceOnUse">
      <stop stop-color="#1F579D" offset="0"/>
      <stop stop-color="#205CAA" offset="1"/>
    </linearGradient>
    <linearGradient id="paint1_linear_2396_11201" x1="70.63" x2="181.3" y1="103.1" y2="103.1" gradientUnits="userSpaceOnUse">
      <stop stop-color="#205CAA" offset="0"/>
      <stop stop-color="#1A4278" offset="1"/>
    </linearGradient>
    <linearGradient id="paint2_linear_2396_11201" x1="85.03" x2="138.6" y1="104.6" y2="104.6" gradientUnits="userSpaceOnUse">
      <stop stop-color="#1F579D" offset="0"/>
      <stop stop-color="#205CAA" offset="1"/>
    </linearGradient>
  </defs>
</svg>