<svg xmlns="http://www.w3.org/2000/svg" width="250" height="250" fill="none" viewBox="0 0 250 250">
<!-- SVG created with Arrow, by QuiverAI (https://quiver.ai) -->
  <path d="m33.67 243 0.04-27.21c0-6.01 3.02-7.82 8.24-7.82h22.96l-3.63 5.85h-17.25c-2.62 0-3.26 1.1-3.26 3.28v2.62h19.92l-3.47 6.09h-16.45v12.33l-7.1 4.86z" fill="#0B263A"/>
  <path d="m77.81 238.1c-7.1 0-9.92-3.8-9.92-18.09 0-9.96 3.03-12.13 10.33-12.13h13.89c8.93 0 10.4 4.37 10.4 11.88 0 10-0.93 18.34-10.23 18.34h-14.47zm13.5-24.58h-11.87c-4.33 0-4.93 1.69-4.93 7.42 0 7.06 0.3 11.13 5.18 11.13h11.37c5.22 0 4.88-4.62 4.88-11.39 0-5.26-0.81-7.16-4.63-7.16z" fill="#0B263A"/>
  <path d="m108.2 207.9h23.12c7.52 0 8.82 4.45 8.82 9.04v1.69c0 4.67-2.54 8.02-7.26 8.45l9.61 10.95h-9.1l-8.47-10.44h-9.57v10.44h-7.1v-16.23h21.47c3.03 0 3.75-1.56 3.75-3.65v-0.96c0-2.26-0.97-3.44-4.13-3.44h-21.14v-5.85z" fill="#0B263A"/>
  <path d="m176 213.6h-19.19c-3.51 0-4.68 1.1-4.68 5.73v7.3c0 4.03 1.38 5.18 4.47 5.18h12.5c3.2 0 3.71-1.19 3.71-3.93v-1.91h-11.91l4.51-6.17h13.73v8.88c0 6.21-2.98 9.33-9.22 9.33h-14.41c-6.25 0-9.88-3.16-9.88-10.05v-10.87c0-5.89 3.59-9.3 9.84-9.3h23.63l-3.1 5.81z" fill="#0B263A"/>
  <path d="m212.5 238.1h-27.57v-21.97c0-5.39 2.86-8.16 9.02-8.16h21.54l-3.43 5.85h-17.18c-2.58 0-3.47 0.84-3.47 3.36v2.83h19.33l-3.71 5.85h-15.66v6.39h24.03l-2.9 5.85z" fill="#0B263A"/>
  <path d="m55.24 103.2 41.37 0.41c-2.74-3.31-12.7-8.4-20.6-11.14l20.6 11.14c-1.19-1.55-8.75-6.52-16.04-11.14" stroke="url(#paint0_linear_162_113)" stroke-linecap="round" stroke-width="4.404"/>
  <path d="m139.9 105.3c3.59-4.3 8.22-6.9 12.26-8.19l38.42-12.96-38.42 15.37c-3.39 1.3-3.35 4.93 2.07 5.19l24.63 0.21" stroke="url(#paint1_linear_162_113)" stroke-linecap="round" stroke-width="4.404"/>
  <path d="m150.4 88.16 13.05-9.96" stroke="url(#paint2_linear_162_113)" stroke-linecap="round" stroke-width="4.404"/>
  <path d="m172.7 71.32 3.21-3.02" stroke="url(#paint3_linear_162_113)" stroke-linecap="round" stroke-width="4.404"/>
  <path d="m61.49 61.11 23.1 21.35" stroke="url(#paint4_linear_162_113)" stroke-linecap="round" stroke-width="4.404"/>
  <path d="m63.39 86.65 3.43 1.19" stroke="url(#paint5_linear_162_113)" stroke-linecap="round" stroke-width="4.404"/>
  <path d="m119.5 9.09v28.17" stroke="url(#paint6_linear_162_113)" stroke-linecap="round" stroke-width="4.404"/>
  <path d="m135.3 28.16v18.57" stroke="url(#paint7_linear_162_113)" stroke-linecap="round" stroke-width="4.404"/>
  <path d="m103.1 22.29v20.56" stroke="url(#paint8_linear_162_113)" stroke-linecap="round" stroke-width="4.404"/>
  <path d="m32.98 117h48.94v-3.1h10.36v-1.39h98.03v9.06c0 5.01-3.03 6.7-7.75 7.2-17.49 2-34.94 11.88-34.94 25.18 0 8.13 8.16 15.64 17.09 17.55 4.17 0.89 5.47 4.2 5.47 7.57v8.64h16.8c1.73 0 1.99 1.1 1.99 2.1 0 1.34-0.74 2.06-1.99 2.06h-126.8c-1.73 0-1.98-1.3-1.98-2.19 0-1.21 0.6-1.97 1.98-1.97h15.95v-8.13c0-4.3 1.87-7.19 5.87-7.91 8.82-1.65 16.42-9.2 16.42-14.79 0-3.8-2.12-6.32-6.15-6.32v-2.04c-31.17-1.91-47.25-13.64-56.26-25.89-1.73-2.48-2.83-5-3.04-5.63z" fill="url(#paint9_linear_162_113)"/>
  <path d="m41.37 121.6h38.14v6.21c-11.49-0.64-26.09-3.16-35.23-5.24 6.61 6.35 15.13 12.74 23.15 16.05-11.22-2.93-21.31-10.81-26.06-17.02z" fill="url(#paint10_linear_162_113)"/>
  <path d="m84.11 120.1h7.3v16.61h-6.5l-0.8-16.61z" fill="url(#paint11_linear_162_113)"/>
  <path d="m96.78 116.8 88.94 0.08v2.52l-29.94-0.12c-2.7 0-6.65 5.05-16.69 12.11-11.87 7.79-29.88 13.86-42.78 14.85l0.47-29.44z" fill="url(#paint12_linear_162_113)"/>
  <path d="m96.78 116.8 64.14-0.21-55.8 8.39c-2.99 1-8.51 16.9-8.9 21.26l0.56-29.44z" fill="url(#paint13_linear_162_113)"/>
  <path d="m82.62 178.7h19.01v8.52h-19.01v-8.52z" fill="url(#paint14_linear_162_113)"/>
  <path d="m144.3 177.2h21.74v1.5h-21.74v-1.5z" fill="url(#paint15_linear_162_113)"/>
  <path d="m103.3 154.7c3.2 8.39-6.15 19.03-14.16 20.53-2.8 0.5-7.1 0-7.1 4.38v7.56h2.1v-8.52h17.52c6.16-7.04 13.54-10.67 21.68-10.67s15.28 4.23 20.96 9.17h13.85c-3.99-0.68-8.11-1.09-10.5-1.92-8.53-13.77-20.4-22.03-44.35-20.53z" fill="url(#paint16_linear_162_113)"/>
  <path d="m121.6 166.6v8.67h3.79c7.42 0 18.52 3.42 18.86 11.43v-9.51c-6.65-7.05-14.03-10.59-22.65-10.59z" fill="url(#paint17_linear_162_113)"/>
  <path d="m107.9 187.2c3.2-4.16 9.36-6.16 15.39-6.16s12.19 2 15.39 6.16h-30.78z" fill="#FEFFFE"/>
  <path d="m92.75 58.94 19.36-11.73 5.9 1 7.94 14.5 77.74-48.63c4.47-2.38 8.52 0.88 10.64 6.84 2.39 4.26 1.14 9.09-2.29 10.49l-77.73 45.5 6.87 11.46-0.83 6.35-19.74 12.34-5.57-1-7.94-12.85-4.88 2.52c-3.51-0.49-7.7-9.62-9.94-12.77l-0.66-16.85 1.13-7.17z" fill="url(#paint18_linear_162_113)"/>
  <path d="m96.39 62.71 12.32-8.3 2.78 1.5c1.87 3.8 4.7 6.01 9.8 7.3l6.32 8.8 3.31 4.6-2.88-2.47-0.91-1.13-2.82-4.33c-5.3-1.5-10.02-4.27-12.82-10.66l-8.22 3.42c-3.15 1.77-5.09 3.94-4.14 6.65l18.88 34.72-2.97-0.72-19.32-34.91 0.67-4.47z" fill="url(#paint19_linear_162_113)"/>
  <path d="m103.1 61.02 2.03-1c1.19 5.19 1.19 10.46 0 13.69-1.37-3.68-3.08-8.29-2.03-12.69z" fill="url(#paint20_linear_162_113)"/>
  <path d="m100 84.77 2.03-1.31 3.03 5.66-2.03 1-3.03-5.35z" fill="url(#paint21_linear_162_113)"/>
  <path d="m124.2 65.12 81.9-47.8c1.83-0.68 3.17 1.67 3.42 3.18l-78.05 48.63-3.88-2.52-3.39-1.49z" fill="url(#paint22_linear_162_113)"/>
  <path d="m115 91.12c3.39-0.33 4.44 2.82 6.25 3.6l7.52 2.01-4.88 3.19-4.92 2.17-6.9-9.42 2.93-1.55z" fill="url(#paint23_linear_162_113)"/>
  <defs>
    <linearGradient id="paint0_linear_162_113" x1="75.93" x2="75.93" y1="92.5" y2="104.9" gradientUnits="userSpaceOnUse">
      <stop stop-color="#567491" offset="0"/>
      <stop stop-color="#D7723F" offset=".5208"/>
      <stop stop-color="#F6A336" offset="1"/>
    </linearGradient>
    <linearGradient id="paint1_linear_162_113" x1="165.3" x2="165.3" y1="84.16" y2="105.3" gradientUnits="userSpaceOnUse">
      <stop stop-color="#2969A7" offset="0"/>
      <stop stop-color="#D7723F" offset=".5208"/>
      <stop stop-color="#F6A336" offset="1"/>
    </linearGradient>
    <linearGradient id="paint2_linear_162_113" x1="156.9" x2="156.9" y1="78.2" y2="89.36" gradientUnits="userSpaceOnUse">
      <stop stop-color="#567491" offset="0"/>
      <stop stop-color="#D7723F" offset=".5208"/>
      <stop stop-color="#F6A336" offset="1"/>
    </linearGradient>
    <linearGradient id="paint3_linear_162_113" x1="174.3" x2="174.3" y1="68.3" y2="72.07" gradientUnits="userSpaceOnUse">
      <stop stop-color="#2969A7" offset="0"/>
      <stop stop-color="#567491" offset="1"/>
    </linearGradient>
    <linearGradient id="paint4_linear_162_113" x1="73.04" x2="73.04" y1="61.11" y2="83.11" gradientUnits="userSpaceOnUse">
      <stop stop-color="#2969A7" offset="0"/>
      <stop stop-color="#D7723F" offset=".5208"/>
      <stop stop-color="#F6A336" offset="1"/>
    </linearGradient>
    <linearGradient id="paint5_linear_162_113" x1="65.11" x2="65.11" y1="86.65" y2="88.55" gradientUnits="userSpaceOnUse">
      <stop stop-color="#567491" offset="0"/>
      <stop stop-color="#4A6074" offset="1"/>
    </linearGradient>
    <linearGradient id="paint6_linear_162_113" x1="121" x2="121" y1="9.088" y2="39.26" gradientUnits="userSpaceOnUse">
      <stop stop-color="#2969A7" offset="0"/>
      <stop stop-color="#815959" offset=".5208"/>
      <stop stop-color="#A86F41" offset="1"/>
    </linearGradient>
    <linearGradient id="paint7_linear_162_113" x1="136.3" x2="136.3" y1="26.66" y2="48.23" gradientUnits="userSpaceOnUse">
      <stop stop-color="#2969A7" offset="0"/>
      <stop stop-color="#567491" offset="1"/>
    </linearGradient>
    <linearGradient id="paint8_linear_162_113" x1="104.1" x2="104.1" y1="20.79" y2="44.35" gradientUnits="userSpaceOnUse">
      <stop stop-color="#2969A7" offset="0"/>
      <stop stop-color="#815959" offset="1"/>
    </linearGradient>
    <linearGradient id="paint9_linear_162_113" x1="111.6" x2="111.6" y1="112.5" y2="191.9" gradientUnits="userSpaceOnUse">
      <stop stop-color="#002A46" offset="0"/>
      <stop stop-color="#092235" offset="1"/>
    </linearGradient>
    <linearGradient id="paint10_linear_162_113" x1="54.4" x2="54.4" y1="121.6" y2="138.6" gradientUnits="userSpaceOnUse">
      <stop stop-color="#FCE1C0" offset="0"/>
      <stop stop-color="#0B263A" offset="1"/>
    </linearGradient>
    <linearGradient id="paint11_linear_162_113" x1="87.76" x2="87.76" y1="120.1" y2="136.7" gradientUnits="userSpaceOnUse">
      <stop stop-color="#FCE1C0" offset="0"/>
      <stop stop-color="#0B263A" offset="1"/>
    </linearGradient>
    <linearGradient id="paint12_linear_162_113" x1="140.6" x2="140.6" y1="116.6" y2="146.3" gradientUnits="userSpaceOnUse">
      <stop stop-color="#2969A7" offset="0"/>
      <stop stop-color="#133558" offset="1"/>
    </linearGradient>
    <linearGradient id="paint13_linear_162_113" x1="128.5" x2="128.5" y1="116.6" y2="146.3" gradientUnits="userSpaceOnUse">
      <stop stop-color="#E87539" offset="0"/>
      <stop stop-color="#D7723F" offset="1"/>
    </linearGradient>
    <linearGradient id="paint14_linear_162_113" x1="92.12" x2="92.12" y1="178.7" y2="187.2" gradientUnits="userSpaceOnUse">
      <stop stop-color="#2969A7" offset="0"/>
      <stop stop-color="#133558" offset="1"/>
    </linearGradient>
    <linearGradient id="paint15_linear_162_113" x1="155.1" x2="155.1" y1="177.2" y2="178.7" gradientUnits="userSpaceOnUse">
      <stop stop-color="#2969A7" offset="0"/>
      <stop stop-color="#133558" offset="1"/>
    </linearGradient>
    <linearGradient id="paint16_linear_162_113" x1="120.1" x2="120.1" y1="154.3" y2="187.2" gradientUnits="userSpaceOnUse">
      <stop stop-color="#2969A7" offset="0"/>
      <stop stop-color="#0B263A" offset="1"/>
    </linearGradient>
    <linearGradient id="paint17_linear_162_113" x1="132.9" x2="132.9" y1="166.6" y2="186.7" gradientUnits="userSpaceOnUse">
      <stop stop-color="#2969A7" offset="0"/>
      <stop stop-color="#133558" offset="1"/>
    </linearGradient>
    <linearGradient id="paint18_linear_162_113" x1="154" x2="154" y1="13.25" y2="107.1" gradientUnits="userSpaceOnUse">
      <stop stop-color="#002A46" offset="0"/>
      <stop stop-color="#092235" offset="1"/>
    </linearGradient>
    <linearGradient id="paint19_linear_162_113" x1="111.6" x2="111.6" y1="54.41" y2="102.8" gradientUnits="userSpaceOnUse">
      <stop stop-color="#FCE1C0" offset="0"/>
      <stop stop-color="#0B263A" offset="1"/>
    </linearGradient>
    <linearGradient id="paint20_linear_162_113" x1="104.3" x2="104.3" y1="60.02" y2="73.71" gradientUnits="userSpaceOnUse">
      <stop stop-color="#2969A7" offset="0"/>
      <stop stop-color="#133558" offset="1"/>
    </linearGradient>
    <linearGradient id="paint21_linear_162_113" x1="102.6" x2="102.6" y1="83.46" y2="90.12" gradientUnits="userSpaceOnUse">
      <stop stop-color="#2969A7" offset="0"/>
      <stop stop-color="#133558" offset="1"/>
    </linearGradient>
    <linearGradient id="paint22_linear_162_113" x1="166.9" x2="166.9" y1="17.07" y2="69.13" gradientUnits="userSpaceOnUse">
      <stop stop-color="#FEFFFE" offset="0"/>
      <stop stop-color="#567491" offset=".5208"/>
      <stop stop-color="#0B263A" offset="1"/>
    </linearGradient>
    <linearGradient id="paint23_linear_162_113" x1="120.5" x2="120.5" y1="91" y2="102.1" gradientUnits="userSpaceOnUse">
      <stop stop-color="#2969A7" offset="0"/>
      <stop stop-color="#0B263A" offset="1"/>
    </linearGradient>
  </defs>
</svg>