<svg xmlns="http://www.w3.org/2000/svg" width="250" height="250" fill="none" viewBox="0 0 250 250">
<!-- SVG created with Arrow, by QuiverAI (https://quiver.ai) -->
  <path d="m29.11 52.48 20.56-10.39 15.8-11.82c2.94-1.75 8.19-2.28 12.6-2.88l16.74-2.07 29.31-15.63 24.17 13.39 4.96-2.62 20.47 13.25 4.89 2.17 41.46 15.85 1.25 1.07v91.99l-21.3 12.22 18.89 17.68c2.95 2.84 1.27 8.24-3.63 8.47-1.8 0.09-3.42-1.1-4.66-2.74l-20.15-17.49-65.69 34.77-1.17-0.13-94.93-51.96-0.68-1.59 0.13-91.22 0.98-0.32z" fill="#0D2A47"/>
  <path d="m125.2 14.08 21.56 11.6 6.47-4.56 20.47 15.49 4.89 1.2 35 14.09-13.5 8.19-15.4 5.99c-11.92 1.4-21.2 4.03-32.82 11.72-6.82 4.73-13.98 9.98-26.67 13.06l-2.3-0.94 0.69-75.84h1.61z" fill="#85C2A0" fill-opacity=".9"/>
  <path d="m123.9 14.08-0.3 75.84-4.13-0.81-19.16-8.01-18.51-16.08 17.47-22.93 5.84-4.63 16.79 12.26 4.04-0.94 21.8-27.36-23.84-7.34z" fill="#1756A5" fill-opacity=".8"/>
  <path d="m35.44 52.21 15.58-8.32 15.19-9.71c4.38-2.69 8.62-2.69 13.86-3.38l15.24-1.98 28.3-14.74v1.03l-0.13 51.98-23.37 6.67-18.3-8.74-20.33-4.61-9.5-1.49-16.54-6.71z" fill="#1756A5" fill-opacity=".9"/>
  <path d="m33.32 56.42 13.5 4.39c5.92 2.07 9.79 2.47 14.17 2.47 10.74 0 23.82 5.48 33.82 14.85 6.3 6.04 11.41 9.65 21.41 13.97l-10.09 14.11-22.71-15.18c-6.51-4.02-12.31-4.6-20.46-5.54-7.73-0.89-14.85-3.68-29.73-9.12l0.09-19.95z" fill="#8898A0" fill-opacity=".9"/>
  <path d="m33.19 82.75 12.87 4.77c7.73 3.11 12.98 3.07 19.98 4.09 7.07 1.02 12.24 3.13 18.25 7.52l20.28 12.49-10.3 11.29-17.19-11.74c-4.85-2.79-9.97-2.79-16.3-3.81l-27.59-7.38v-17.23z" fill="#85C2A0" fill-opacity=".9"/>
  <path d="m32.93 120.5 14.23 4.39 2.3 1.33-16.53 14.28v-20z" fill="#8898A0" fill-opacity=".8"/>
  <path d="m33.32 142.9 16.44-15.49 5.8-0.31 11.67 12.7 0.89 5.07 3.31 4.11 5.76 0.13 4.08-9.31 41.43 25.41v25.06l-89.38-47.37z" fill="#62869C" fill-opacity=".9"/>
  <path d="m126.2 165.2 16.44-10.3 9.67 1.89 11.92-0.55 11.38-3.84 6.43-3.39 6.33 7.98-62.17 33.27v-25.06z" fill="#595A5C" fill-opacity=".9"/>
  <path d="m194.4 153 21.47-11.32v-19.58l-22.54 6.8-5.75 15.97 3.7 5.35 3.12 0.68v2.1z" fill="#595A5C" fill-opacity=".9"/>
  <path d="m192.3 113 22.75-10.39v15.13l-21.1 9.66-1.65-14.4z" fill="#1756A5" fill-opacity=".8"/>
  <path d="m182.2 96.79 32.59-13.87v14.36l-23.54 11.56-9.05-12.05z" fill="#3F8E72" fill-opacity=".9"/>
  <path d="m167.6 88.51 19.12-4.02 27.99-12.43v7.98l-26.74 12.92-10 1.94-10.37-6.39z" fill="#678699" fill-opacity=".9"/>
  <path d="m152.3 77.82 10.66-6.11c6.24-2.84 11.95-3.53 17.49-4.28 7.31-1.02 11.35-2.74 16.81-5.53l17.74-9.69 0.26 12.92-24.14 12.09-16.01 3.57c-6.91 1.44-13.81 4.32-22.81 6.99v-9.96z" fill="#495A63" fill-opacity=".9"/>
  <path d="m32.93 70.4 13 4.77c7.73 3.11 10.85 3.2 17.84 4.22 9.25 0.69 16.34 3.57 23.94 8.82l20.28 12.92-2.21 3.78-20.29-12.92c-6.51-4.03-10.68-5.05-18.83-5.99-7.73-0.89-13.02-1.87-33.82-9.63l0.09-5.97z" fill="#95C4D7" fill-opacity=".9"/>
  <path d="m32.8 102.4 16.44 6.7 4.38 0.8 1.2-0.8 10.37 1.31c5.92 0.64 9.45 1.66 14.84 5.41l12.35 8.08-12.35 13.25-5.25-6.08-14.61-5.16-1.46-5.4-5.53-1.5-5.25 2.8-15.15-5.01 0.02-14.4z" fill="#398BA6" fill-opacity=".9"/>
  <path d="m94.31 126.2 28.39 12.71v21.16l-36.75-24.1 8.36-9.77z" fill="#3391B5" fill-opacity=".9"/>
  <path d="m126.2 142.6 0.76 0.51c3.08 4.81 6.11 8.05 11.2 11.25l-11.96 5.75v-17.51z" fill="#1756A5" fill-opacity=".8"/>
  <path d="m130.1 101.9c11.03-14.81 32.25-17.2 46.99-6.12s17.64 32.75 6.61 46.79c-11.03 14.81-32.25 16.31-46.28 5.23-14.74-11.08-17.69-31.11-7.32-45.9z" fill="#85C2A0" fill-opacity=".8" stroke="#0D2A47" stroke-width="4.08"/>
  <path d="m103.1 109.9 6.21 3.38 12.83 6.04v-7.08l-10.04-6.08-2.79-2.02-6.21 5.76z" fill="#B8D8E5" fill-opacity=".9"/>
  <path d="m118.4 95.07 3.93 1.72v9.33l-8.31-4.49 4.38-6.56z" fill="#B8D8E5" fill-opacity=".9"/>
  <path d="m131.1 137.2 32.05-18.14c8.35-4.21 13.7-5.23 23.79-6.82l0.87 0.82 0.38 16.54-13.54 4.21-29.44 17.14-4.51-1.92-9.6-11.83z" fill="#4A7DB4" fill-opacity=".9"/>
  <path d="m127.8 117.8 41.05-21.7 4.91-1.16 2.39 2.12-6-0.23-42.35 25.03v-4.06z" fill="#8898A0" fill-opacity=".8"/>
  <path d="m146.8 149.9 20.47-12.77c5.91-3.25 10.77-4.27 19.08-5.29l-1.42 5.29c-4.73 8.45-12.12 15.76-26.9 16.4-4.19 0-7.59-1.02-11.23-3.63z" fill="#8898A0" fill-opacity=".8"/>
  <path d="m149.9 18.07c-2.19-3.21-0.22-7.61 4.2-7.35 4.81 0.26 5.98 5.29 3.91 8.08l13.16 11.96c4.54-3.15 9.84-0.22 9.84 4.86l6.9 2.19 20.93-22.39c-1.51-4.21 2.08-8.33 5.08-7.69 5.34 0.4 6.46 5.34 4.66 8.09-2.26 3.56-5.61 3.07-8.56 1.49l-38.09 42.78-18.51-11.31-30.5 42.43-2.9-2.1 27.73-67.69c0.66-0.94 1.19-1.78 2.15-3.35z" fill="#0D2A47" fill-opacity=".6"/>
  <path d="m101 36.91c3.12-3.9 8.92-1.2 8.66 3.1-0.04 0.9-0.34 1.6-0.64 2.4l11.16 7.31c2.56-1.8 5.63-1.4 7.74 0.4 2.8 2.5 2.28 8.8-3.32 9.6-5.6 0.49-6.52-4.95-5.39-7.51l-10.78-7.7c-3.03 2.45-7.22 1.21-8.63-2.1-0.88-2.4-0.3-3.85 1.2-5.5z" fill="#0D2A47" fill-opacity=".6"/>
  <path d="m105.5 37.32c2.61 0 3.44 3.61 1.25 5.09-2.41 1.57-5.02-1.1-3.64-3.6 0.53-0.93 1.36-1.49 2.39-1.49z" fill="#85C2A0" fill-opacity=".9"/>
  <path d="m124.5 50.72c2.61 0 3.45 3.61 1.25 5.09-2.41 1.57-5.02-1.1-3.64-3.6 0.53-0.93 1.37-1.49 2.39-1.49z" fill="#85C2A0" fill-opacity=".9"/>
  <path d="m153.6 13.07c2.61 0 3.44 3.61 1.25 5.09-2.41 1.57-5.02-1.1-3.64-3.6 0.53-0.93 1.36-1.49 2.39-1.49z" fill="#85C2A0" fill-opacity=".9"/>
  <path d="m174.6 33.22c3.31-1.66 5.34 3.21 2.44 5.1-2.94 1.84-5.84-2.3-3.23-4.56 0.29-0.26 0.46-0.39 0.79-0.54z" fill="#85C2A0" fill-opacity=".9"/>
  <path d="m213.2 10.31c3.31-1.66 5.34 3.21 2.44 5.1-2.94 1.84-5.84-2.3-3.23-4.56 0.29-0.26 0.46-0.39 0.79-0.54z" fill="#85C2A0" fill-opacity=".9"/>
  <path d="m153.2 21.12v68.98" opacity=".6" stroke="#FEFFFE" stroke-width="2.04"/>
  <path d="m194.4 37.46v70.65" opacity=".6" stroke="#FEFFFE" stroke-width="2.04"/>
  <path d="m104.8 43.89v139.3" opacity=".6" stroke="#FEFFFE" stroke-width="2.04"/>
  <path d="m53.62 101.1v52.47" opacity=".6" stroke="#FEFFFE" stroke-width="2.04"/>
  <path d="m73.91 101.1v63.73" opacity=".6" stroke="#FEFFFE" stroke-width="2.04"/>
  <path d="m53.62 120.5c3.79 0 4.36 5.4 0.76 6.39-3.75 0.98-5.55-4.47-1.85-6.09 0.35-0.17 0.69-0.26 1.09-0.3z" fill="#B8D8E5" fill-opacity=".9" stroke="#0D2A47" stroke-width="3.36"/>
  <path d="m73.78 143.1c3.08-2.39 6.73 1.55 4.33 4.63-2.39 3.07-7.13 0.32-5.52-3.52 0.26-0.5 0.69-0.85 1.19-1.11z" fill="#B8D8E5" fill-opacity=".9" stroke="#0D2A47" stroke-width="3.36"/>
  <path d="m44.12 142.1 2.7-0.92 0.51 1.7-2.07 0.71-1.14-1.49z" fill="#0D2A47" fill-opacity=".6"/>
  <path d="m60.3 143.4 2.11 0.26 3.31 3.39-0.44 1.98h-1.38l-3.85-4.11 0.25-1.52z" fill="#0D2A47" fill-opacity=".6"/>
  <path d="m86.38 149.5 2.03 0.26 3.31 1.98v0.98l-4.25-2.47-1.09-0.75z" fill="#0D2A47" fill-opacity=".6"/>
  <path d="m84.58 164.4 2.03 0.26 1.31 1.49-1.31 0.75-2.03-1.7v-0.8z" fill="#0D2A47" fill-opacity=".6"/>
  <path d="m93.79 162.9 3.85-1.85 1.69 1.02v2.72l-2.16 0.8-2.9-0.4-0.48-2.29z" fill="#0D2A47" fill-opacity=".6"/>
  <path d="m142.7 169.2 3.84-0.8-5.25 5.4 1.41-4.6z" fill="#0D2A47" fill-opacity=".6"/>
  <path d="m195.2 143.9 2.7-2.22 0.26 1.93-2.48 2.5-1.32-0.51 0.84-1.7z" fill="#0D2A47" fill-opacity=".6"/>
  <path d="m205.3 134.9 3.12-1.14-0.97 3.84-2.7-0.45 0.55-2.25z" fill="#0D2A47" fill-opacity=".6"/>
  <path d="m16.48 237.4h21.93c2.81 0 3.7-0.64 3.7-3.19v-0.93c0-2.41-0.89-3.11-3.7-3.11h-13.5c-6.33 0-8.68-2.35-8.68-8.48v-0.89c0-5.83 2.48-8.53 8.68-8.53h21.7v5.79h-19.71c-2.57 0-3.59 0.85-3.59 3.15v0.53c0 2.21 1.02 3.01 3.59 3.01h12.57c6.37 0 8.76 2.21 8.76 8.08v1.76c0 5.79-2.39 8.33-8.76 8.33h-22.99v-5.52z" fill="#0D2A47"/>
  <path d="m65.23 217.9h-13.71v-5.66h33.59v5.66h-14.34v24.99h-5.54v-24.99z" fill="#0D2A47"/>
  <path d="m89.84 212.3h22.17c7.06 0 9.82 3.43 9.82 8.83v1.53c0 4.42-1.8 7.85-6.92 8.74l8.15 11.55h-6.97l-7.48-10.43h-12.88v10.43h-5.89v-30.65zm20.94 15.18c3.7 0 5.16-1.02 5.16-4.28v-1.26c0-3.3-1.46-4.19-5.16-4.19h-14.88v9.73h14.88z" fill="#0D2A47"/>
  <path d="m143.3 212.1h3.85c2.2 0 2.99 1.21 3.79 2.79l14.48 27.87h-7.15l-3.65-6.61h-19.2l-3.2 6.61h-7.4l15.01-28.71c0.71-1.4 1.64-1.95 3.47-1.95zm-3.21 16.85-1.66 2.3h13.29l-1.5-2.65-4.79-10.44-5.34 10.79z" fill="#0D2A47"/>
  <path d="m175.6 217.9h-13.37v-5.66h32.46v5.66h-12.7v24.99h-6.39v-24.99z" fill="#0D2A47"/>
  <path d="m210.9 212.1h3.04c2.2 0 2.99 1.21 3.79 2.79l16.01 27.87h-7.15l-3.66-6.61h-19.65l-3.66 6.61h-7.39l15-28.71c0.84-1.57 1.68-1.95 3.67-1.95zm-2.29 16.85-2.07 2.3h13.28l-1.5-2.65-5.34-10.44-4.37 10.79z" fill="#0D2A47"/>
</svg>