<svg xmlns="http://www.w3.org/2000/svg" width="256" height="256" fill="none" viewBox="0 0 256 256">
<!-- SVG created with Arrow, by QuiverAI (https://quiver.ai) -->
  <path d="m126.8 16.59c-59.95 0-112.1 50.15-112.1 112.5 0 60.66 50.16 110.8 112.1 110.8 62.17 0 112.1-49.95 112.1-110.8s-49.95-112.5-112.1-112.5z" fill="url(#paint0_linear_103_2013)"/>
  <path d="m126.8 17.59c-60.08 0-111.1 49.63-111.1 111.4 0 60.75 49.5 110 111.1 110 61.83 0 111.5-49.29 111.5-110 0-60.67-49.63-111.4-111.5-111.4z" fill="url(#paint1_linear_103_2013)"/>
  <path d="m126.5 31.53c-53.57 0-97.25 45.28-97.25 97.7 0 6.85 0.61 12.79 1.71 17.89 6.51-4.93 14.68-10.85 16.2-14.97l8.07-28c1.06-2.12 2.36-2.87 4.76-3.86l22.1-7.58v-21.69h26.78v-17.41h36.79v17.41h28v27.75l-4.12 7.93c11.46 1.06 28.3 7.12 32.42 8.42 4.39 1.39 5.14 6.79 6.2 10.91 2.78 10.98 4.41 21.43 12.93 29.63 2.12-8.07 3.31-14.55 3.31-26.43 0-52.42-44.33-97.7-97.9-97.7z" fill="url(#paint2_linear_103_2013)"/>
  <path d="m201.8 150.1-5.9-24.1-38.63 21.69-7.58 4.12-14.39-4.12 24.46-29.6c2.91 1.8 8.14 1.71 12.39 1.97 7.75 0.44 18.56 4.56 23.75 5.94l0.43-0.26-0.17-0.6 0.92 0.55-0.75 0.05-0.43 0.26 5.9 24.1c1.67 6.85 9.07 13.99 13.64 18.92-14.57 32.93-48.23 57.46-88.66 57.46-13.83 0-25.46-2.6-36.62-7.53l18.46-14.99 36.79-0.52v-17.41h28.52v-38.34h-16.66l0.34-0.26-0.69 0.26h-21.62l24.46-29.6c2.91 1.8 8.14 1.71 12.39 1.97 7.75 0.44 18.56 4.56 23.75 5.94l0.43-0.26-0.17-0.6 5.64 24.96z" fill="url(#paint3_linear_103_2013)"/>
  <path d="m59.84 135.1 26.78 13.1-6.6 9.48v28h28.53v17.92l-18.38 14.82c-26.27-10.2-47-31.55-56.22-59.8 8.17-5.97 23.27-15.8 25.89-23.52z" fill="url(#paint4_linear_103_2013)"/>
  <path d="m59.84 135.1 5.19-24.02c0.93-2.43 7.09-3.49 8.72-3.49 2.43 0 3.97-1.3 6.18-2.01l2.18 3.99h35.37l-30.86 38.63-26.78-13.1z" fill="url(#paint5_linear_103_2013)"/>
  <path d="m118.5 63.64v17.92h-26.23v17.92h45.3l-47.44 61.3v15.5h28.52v17.41h16.01v-17.41h29.03v-17.92h-47.97l47.45-61.3v-14.99h-28.52v-18.43h-16.15z" fill="url(#paint6_linear_103_2013)"/>
  <defs>
    <linearGradient id="paint0_linear_103_2013" x1="126.8" x2="126.8" y1="16.59" y2="239.9" gradientUnits="userSpaceOnUse">
      <stop stop-color="#0B2A4A" offset="0"/>
      <stop stop-color="#0D2940" offset="1"/>
    </linearGradient>
    <linearGradient id="paint1_linear_103_2013" x1="127" x2="127" y1="17.59" y2="238.9" gradientUnits="userSpaceOnUse">
      <stop stop-color="#0D2949" offset="0"/>
      <stop stop-color="#0D2940" offset="1"/>
    </linearGradient>
    <linearGradient id="paint2_linear_103_2013" x1="126.8" x2="126.8" y1="31.53" y2="155.7" gradientUnits="userSpaceOnUse">
      <stop stop-color="#2861A4" offset="0"/>
      <stop stop-color="#2760AB" offset="1"/>
    </linearGradient>
    <linearGradient id="paint3_linear_103_2013" x1="152.8" x2="152.8" y1="118.1" y2="226.5" gradientUnits="userSpaceOnUse">
      <stop stop-color="#475254" offset="0"/>
      <stop stop-color="#505A5D" offset="1"/>
    </linearGradient>
    <linearGradient id="paint4_linear_103_2013" x1="71.76" x2="71.76" y1="135.1" y2="218.5" gradientUnits="userSpaceOnUse">
      <stop stop-color="#5A717A" offset="0"/>
      <stop stop-color="#6A828C" offset="1"/>
    </linearGradient>
    <linearGradient id="paint5_linear_103_2013" x1="88.66" x2="88.66" y1="105.6" y2="148.2" gradientUnits="userSpaceOnUse">
      <stop stop-color="#939FA5" offset="0"/>
      <stop stop-color="#819299" offset="1"/>
    </linearGradient>
    <linearGradient id="paint6_linear_103_2013" x1="126.9" x2="126.9" y1="63.64" y2="193.7" gradientUnits="userSpaceOnUse">
      <stop stop-color="#2972CA" offset="0"/>
      <stop stop-color="#296FBD" offset="1"/>
    </linearGradient>
  </defs>
</svg>